#N canvas 713 199 540 451 10;
#N canvas 425 94 599 674 saveme 0;
#X obj 321 386 textfile;
#X msg 210 287 clear;
#X msg 395 369 print;
#X obj 321 310 list prepend add;
#X obj 321 336 list trim;
#X obj 188 387 s SSSAD_ADMIN;
#X obj 321 242 r SSSAD_ADMIN;
#X obj 321 286 route persist;
#X obj 321 264 list trim;
#X msg 188 321 save;
#X msg 202 360 set;
#X obj 166 251 t a b b;
#X msg 166 434 write \$1;
#X obj 110 119 hradio 15 1 0 8 empty empty preset 0 -6 0 8 -262144
-1 -1 1;
#X obj 107 543 until;
#X msg 107 522 100;
#X obj 107 499 t b a;
#X msg 155 543 read \$1 \, rewind;
#X text 139 522 Avoid loops. A bang normally also works.;
#X obj 166 220 makefilename state-%d.sssad;
#X obj 107 457 makefilename state-%d.sssad;
#X obj 319 433 s SSSAD;
#X obj 386 430 s SSSAD_ADMIN;
#X msg 386 405 set;
#X obj 110 144 bng 15 250 50 0 empty empty save 17 7 0 10 -262144 -1
-1;
#X obj 166 191 float 0;
#X obj 15 235 print saveindex;
#X obj 160 144 bng 15 250 50 0 empty empty load 17 7 0 10 -262144 -1
-1;
#X obj 98 209 float 0;
#X obj 50 160 t b b;
#X connect 0 0 21 0;
#X connect 0 1 23 0;
#X connect 1 0 0 0;
#X connect 2 0 0 0;
#X connect 3 0 4 0;
#X connect 4 0 0 0;
#X connect 6 0 8 0;
#X connect 7 0 3 0;
#X connect 8 0 7 0;
#X connect 9 0 5 0;
#X connect 10 0 5 0;
#X connect 11 0 12 0;
#X connect 11 1 9 0;
#X connect 11 2 1 0;
#X connect 12 0 0 0;
#X connect 13 0 25 1;
#X connect 13 0 26 0;
#X connect 13 0 28 1;
#X connect 14 0 0 0;
#X connect 15 0 14 0;
#X connect 16 0 15 0;
#X connect 16 1 17 0;
#X connect 17 0 0 0;
#X connect 19 0 11 0;
#X connect 20 0 16 0;
#X connect 23 0 22 0;
#X connect 24 0 29 0;
#X connect 25 0 19 0;
#X connect 27 0 28 0;
#X connect 28 0 20 0;
#X connect 29 0 25 0;
#X connect 29 1 25 0;
#X coords 0 -1 1 1 140 70 2 100 100;
#X restore 202 23 pd saveme;
#X obj 226 286 pix_texture;
#X obj 47 255 gemwin;
#X msg 38 235 create \, 1;
#X obj 188 311 rectangle 6 4;
#X obj 347 23 vjmodules/pd_video kanan1;
#X obj 209 260 pix_mix 0.5;
#X obj -3 22 vjmodules/pd_video left1;
#N canvas 0 22 627 624 oke 0;
#X obj 331 396 textfile;
#X msg 405 379 print;
#X obj 331 320 list prepend add;
#X obj 331 346 list trim;
#X obj 331 252 r SSSAD_ADMIN;
#X obj 331 296 route persist;
#X obj 331 274 list trim;
#X obj 108 117 hradio 15 1 0 8 empty empty instant-preset 0 -6 0 8
-262144 -1 -1 1;
#X obj 117 553 until;
#X msg 117 532 100;
#X obj 117 509 t b a;
#X msg 165 553 read \$1 \, rewind;
#X text 149 532 Avoid loops. A bang normally also works.;
#X obj 117 467 makefilename state-%d.sssad;
#X obj 329 443 s SSSAD;
#X obj 396 440 s SSSAD_ADMIN;
#X msg 396 415 set;
#X obj 25 245 print saveindex;
#X msg 220 297 clear;
#X obj 198 397 s SSSAD_ADMIN;
#X msg 198 331 save;
#X msg 212 370 set;
#X obj 176 261 t a b b;
#X msg 176 444 write \$1;
#X obj 176 230 makefilename state-%d.sssad;
#X obj 176 201 float 0;
#X obj 108 137 bng 15 250 50 0 empty empty save 17 7 0 10 -262144 -1
-1;
#X obj 123 174 t b b;
#X connect 0 0 14 0;
#X connect 0 1 16 0;
#X connect 1 0 0 0;
#X connect 2 0 3 0;
#X connect 3 0 0 0;
#X connect 4 0 6 0;
#X connect 5 0 2 0;
#X connect 6 0 5 0;
#X connect 7 0 17 0;
#X connect 7 0 13 0;
#X connect 7 0 25 1;
#X connect 8 0 0 0;
#X connect 9 0 8 0;
#X connect 10 0 9 0;
#X connect 10 1 11 0;
#X connect 11 0 0 0;
#X connect 13 0 10 0;
#X connect 16 0 15 0;
#X connect 20 0 19 0;
#X connect 21 0 19 0;
#X connect 22 0 23 0;
#X connect 22 1 20 0;
#X connect 22 2 18 0;
#X connect 23 0 0 0;
#X connect 24 0 22 0;
#X connect 25 0 24 0;
#X connect 26 0 27 0;
#X connect 27 0 25 0;
#X connect 27 1 25 0;
#X coords 0 -1 1 1 140 60 2 100 100;
#X restore 202 99 pd oke;
#X connect 1 0 4 0;
#X connect 3 0 2 0;
#X connect 5 0 6 1;
#X connect 6 0 1 0;
#X connect 7 0 6 0;
