#N canvas 644 43 1080 625 10;
#X obj -26 176 cnv 15 100 60 empty empty .gem_control 2 7 0 14 -195568
-66577 0;
#N canvas 581 320 485 271 gemwin 1;
#X obj 22 130 outlet;
#X obj 22 10 inlet;
#X obj 22 41 route create;
#X msg 22 70 set destroy;
#X msg 103 71 set create;
#X obj 270 118 inlet;
#X msg 375 201 border \$1;
#X obj 376 181 tgl 15 0 empty empty empty 0 -6 0 10 -262144 -1 -1 1
1;
#X msg 270 138 dimen 1024 800;
#X msg 270 180 dimen 640 480;
#X msg 271 38 offset 0 0;
#X msg 270 159 dimen 800 600;
#X obj 376 126 loadbang;
#X obj 376 150 delay 100;
#X obj 375 51 gemhead;
#X obj 375 96 world_light;
#X obj 97 218 gemwin 100;
#X msg 102 113 destroy \, 0 \, lighting 0;
#X msg 270 81 offset 800 -50;
#X obj 375 73 rotate;
#X msg 270 201 dimen 400 300;
#X msg 3 164 create \, 1 \, lighting 0;
#X msg 269 61 offset 1440 -50;
#X connect 1 0 2 0;
#X connect 2 0 3 0;
#X connect 2 0 21 0;
#X connect 2 1 4 0;
#X connect 2 1 17 0;
#X connect 3 0 0 0;
#X connect 4 0 0 0;
#X connect 5 0 8 0;
#X connect 6 0 16 0;
#X connect 7 0 6 0;
#X connect 8 0 16 0;
#X connect 9 0 16 0;
#X connect 10 0 16 0;
#X connect 11 0 16 0;
#X connect 12 0 13 0;
#X connect 12 0 20 0;
#X connect 13 0 7 0;
#X connect 14 0 19 0;
#X connect 17 0 16 0;
#X connect 18 0 16 0;
#X connect 19 0 15 0;
#X connect 20 0 16 0;
#X connect 21 0 16 0;
#X connect 22 0 16 0;
#X restore -13 213 pd gemwin;
#X msg -13 194 create;
#X obj 38 194 tgl 15 0 empty empty empty 0 -6 0 10 -1 -4034 -1 0 1
;
#N canvas 666 169 657 231 trans_effect 0;
#X obj 192 70 inlet;
#X obj 198 177 outlet;
#X obj 195 110 translateXYZ;
#X obj 199 140 rotateXYZ;
#X obj 320 55 vjmodules/pd_trig;
#X obj 319 154 vjmodules/pd_plus;
#X connect 0 0 2 0;
#X connect 2 0 3 0;
#X connect 3 0 1 0;
#X connect 4 0 2 3;
#X connect 5 0 3 3;
#X restore -529 109 pd trans_effect;
#N canvas 414 319 450 300 effects_mix 1;
#N canvas 793 320 479 459 effex 0;
#X obj 101 -18 inlet;
#X obj 124 225 outlet;
#X obj 166 177 pix_motionblur;
#X floatatom 250 115 5 0 0 0 - - -;
#X obj 326 113 / 100;
#X obj 220 16 pack 0 0 0;
#X obj 236 -44 hsl 128 15 0 1 0 0 empty empty empty -2 -8 0 10 -262144
-1 -1 0 1;
#X obj 236 -23 hsl 128 15 0 1 0 0 empty empty empty -2 -8 0 10 -262144
-1 -1 0 1;
#X obj 238 -2 hsl 128 15 0 1 0 0 empty empty empty -2 -8 0 10 -262144
-1 -1 0 1;
#X obj 210 -41 bng 15 250 50 0 empty empty empty 17 7 0 10 -262144
-1 -1;
#X obj 375 -39 t b a;
#X obj 378 -6 t b a;
#X obj 144 29 color;
#X obj 2 -53 cnv 15 100 30 empty empty LAYER_1 20 12 0 14 -233017 -66577
0;
#X obj 342 295 pix_rotate;
#X obj 355 245 pix_flip;
#X msg 418 165 none;
#X msg 418 185 horizontal;
#X msg 418 205 vertical;
#X msg 418 225 both;
#X obj 375 58 r band1;
#X floatatom 375 110 5 0 0 0 - - -;
#X obj 375 85 abs;
#X obj 326 158 moses 50;
#X obj 337 194 t b;
#X obj 373 190 t b;
#X floatatom 428 114 5 0 0 0 - - -;
#X obj 256 216 delay;
#X floatatom 283 192 5 0 0 0 - - -;
#X obj 253 322 delay;
#X floatatom 280 298 5 0 0 0 - - -;
#X obj 124 64 vjmodules/pd_demux;
#X connect 0 0 31 0;
#X connect 2 0 1 0;
#X connect 3 0 4 0;
#X connect 4 0 2 1;
#X connect 5 0 12 1;
#X connect 6 0 5 0;
#X connect 7 0 10 0;
#X connect 8 0 11 0;
#X connect 9 0 5 0;
#X connect 10 0 5 0;
#X connect 10 1 5 1;
#X connect 11 0 5 0;
#X connect 11 1 5 2;
#X connect 15 0 1 0;
#X connect 16 0 15 0;
#X connect 17 0 15 0;
#X connect 18 0 15 0;
#X connect 19 0 15 0;
#X connect 20 0 22 0;
#X connect 21 0 23 0;
#X connect 22 0 21 0;
#X connect 23 0 27 0;
#X connect 23 1 29 0;
#X connect 24 0 18 0;
#X connect 25 0 17 0;
#X connect 26 0 23 1;
#X connect 27 0 24 0;
#X connect 28 0 27 1;
#X connect 29 0 25 0;
#X connect 30 0 29 1;
#X connect 31 0 1 0;
#X connect 31 1 2 0;
#X connect 31 2 15 0;
#X restore -327 56 pd effex layer 1;
#X obj -327 32 r effex_layer_1_in;
#X obj -196 80 s effex_layer_2_out;
#X obj -196 32 r effex_layer_2_in;
#N canvas 25 521 450 300 effex 0;
#X obj 117 6 inlet;
#X obj 144 245 outlet;
#X obj 186 197 pix_motionblur;
#X floatatom 266 166 5 0 0 0 - - -;
#X obj 307 138 / 100;
#X obj 230 26 pack 0 0 0;
#X obj 245 -32 hsl 128 15 0 1 0 0 empty empty empty -2 -8 0 10 -262144
-1 -1 0 1;
#X obj 245 -12 hsl 128 15 0 1 0 0 empty empty empty -2 -8 0 10 -262144
-1 -1 0 1;
#X obj 244 8 hsl 128 15 0 1 0 0 empty empty empty -2 -8 0 10 -262144
-1 -1 0 1;
#X obj 220 -31 bng 15 250 50 0 empty empty empty 17 7 0 10 -262144
-1 -1;
#X obj 385 -29 t b a;
#X obj 388 4 t b a;
#X obj 131 48 color;
#X obj 5 -31 cnv 15 100 30 empty empty LAYER_2 20 12 0 14 -233017 -66577
0;
#X obj 144 85 vjmodules/pd_demux;
#X connect 0 0 12 0;
#X connect 2 0 1 0;
#X connect 3 0 4 0;
#X connect 4 0 2 1;
#X connect 5 0 12 1;
#X connect 6 0 5 0;
#X connect 7 0 10 0;
#X connect 8 0 11 0;
#X connect 9 0 5 0;
#X connect 10 0 5 0;
#X connect 10 1 5 1;
#X connect 11 0 5 0;
#X connect 11 1 5 2;
#X connect 12 0 14 0;
#X connect 14 0 1 0;
#X connect 14 1 2 0;
#X restore -196 57 pd effex layer 2;
#X obj -327 80 s effex_layer_1_out;
#X obj -66 31 r effex_layer_3_in;
#N canvas 406 70 450 300 effex 0;
#X obj 154 65 inlet;
#X obj 154 255 outlet;
#X obj 196 207 pix_motionblur;
#X floatatom 273 158 5 0 0 0 - - -;
#X obj 273 179 / 100;
#X obj 22 -13 cnv 15 100 30 empty empty LAYER_3 20 12 0 14 -233017
-66577 0;
#X obj 154 94 vjmodules/pd_demux;
#X connect 0 0 6 0;
#X connect 2 0 1 0;
#X connect 3 0 4 0;
#X connect 4 0 2 1;
#X connect 6 0 1 0;
#X connect 6 1 2 0;
#X restore -66 55 pd effex layer 3;
#X obj -66 79 s effex_layer_3_out;
#X obj -324 131 r effex_layer_4_in;
#N canvas 123 368 450 300 effex 0;
#X obj 124 58 inlet;
#X obj 124 116 outlet;
#X connect 0 0 1 0;
#X restore -324 156 pd effex layer 4;
#X obj -324 180 s effex_layer_4_out;
#X obj -193 132 r effex_layer_5_in;
#N canvas 0 22 450 300 effex 0;
#X obj 124 58 inlet;
#X obj 124 116 outlet;
#X connect 0 0 1 0;
#X restore -193 156 pd effex layer 5;
#X obj -193 180 s effex_layer_5_out;
#X obj -63 131 r effex_layer_6_in;
#N canvas 0 22 450 300 effex 0;
#X obj 124 58 inlet;
#X obj 124 116 outlet;
#X connect 0 0 1 0;
#X restore -63 155 pd effex layer 6;
#X obj -63 179 s effex_layer_6_out;
#N canvas 470 62 906 685 effex 1;
#X obj 137 -16 inlet;
#X obj 187 634 outlet;
#X obj 173 291 pix_motionblur;
#X floatatom 189 233 5 0 0 0 - - -;
#X obj 202 264 / 100;
#X obj 293 364 pix_gain;
#X floatatom 290 334 5 0 0 0 - - -;
#X obj 281 450 pix_motionblur;
#X floatatom 306 397 5 0 0 0 - - -;
#X obj 306 428 / 100;
#X obj 329 190 r band1;
#X obj 360 363 r band2;
#X obj 129 92 color;
#X obj 185 105 pack 0 0 0;
#X obj 164 5 hsl 128 15 0 1 0 0 empty empty empty -2 -8 0 10 -262144
-1 -1 11100 1;
#X obj 164 28 hsl 128 15 0 1 0 0 empty empty empty -2 -8 0 10 -262144
-1 -1 10700 1;
#X obj 158 47 hsl 128 15 0 1 0 0 empty empty empty -2 -8 0 10 -262144
-1 -1 11900 1;
#X obj 138 9 bng 15 250 50 0 empty empty empty 17 7 0 10 -262144 -1
-1;
#X obj 181 379 pix_gain;
#X floatatom 219 321 5 0 0 0 - - -;
#X obj 203 347 / 100;
#X obj 303 11 t b a;
#X obj 305 47 t b a;
#X obj -14 -16 cnv 15 100 30 empty empty GLOBAL_EFFECTS 20 12 0 14
-233017 -66577 0;
#X obj 359 280 *;
#X floatatom 403 239 5 0 0 0 - - -;
#X obj 46 361 pix_contrast;
#X floatatom 65 273 5 0 0 0 - - -;
#X obj 67 300 / 100;
#X floatatom 112 293 5 0 0 0 - - -;
#X obj 114 320 / 100;
#X obj 64 442 pix_motionblur;
#X floatatom 87 393 5 0 0 0 - - -;
#X obj 89 420 / 100;
#X obj 75 539 pix_gain;
#X floatatom 92 471 5 0 0 0 - - -;
#X obj 94 498 / 100;
#X obj 217 485 sssad/sssad eff-2;
#X obj 212 438 pack f f;
#X obj 213 414 bondo 2;
#X obj 505 334 pix_2pdp;
#X obj 621 473 pdp2gem;
#X msg 503 453 colorspace YUV;
#X msg 499 433 colorspace RGB;
#X msg 494 410 colorspace RGBA;
#X obj 475 247 t a b;
#X obj 500 280 spigot;
#X obj 546 252 tgl 15 0 empty empty empty 0 -6 0 8 -262144 -1 -1 1
1;
#X obj 609 428 pdp_mosaic;
#X obj 653 371 bng 15 250 50 0 empty empty empty 17 7 0 10 -262144
-1 -1;
#X floatatom 686 337 5 0 0 0 - - -;
#X floatatom 721 341 5 0 0 0 - - -;
#X obj 705 427 pdp_warhol;
#X floatatom 759 342 5 0 0 0 - - -;
#X text 807 261 X Divider;
#X text 844 282 Y Divider;
#X obj 810 304 hdl 15 1 0 9 empty empty empty 0 -6 0 8 -262144 -1 -1
0;
#X floatatom 833 326 5 0 0 0 - - -;
#X floatatom 859 347 5 0 0 0 - - -;
#X floatatom 885 372 5 0 0 0 - - -;
#X text 880 326 Y component;
#X text 908 346 U component;
#X text 931 371 V component;
#X floatatom 947 305 5 0 0 0 - - -;
#X obj 510 564 pix_grey;
#X obj 202 152 pix_gain;
#X floatatom 361 61 5 0 0 0 - - -;
#X obj 345 87 / 100;
#X obj 349 3 loadbang;
#X msg 352 32 230;
#X obj 221 525 unpack f f;
#X obj 161 193 vjmodules/pd_demux;
#X obj 599 269 vjmodules/pd_demux;
#X obj 580 520 vjmodules/pd_demux;
#X obj 309 152 r osc-eff-rack;
#X obj 398 186 print;
#X obj 299 260 route 3;
#X connect 0 0 12 0;
#X connect 2 0 18 0;
#X connect 3 0 4 0;
#X connect 3 0 39 1;
#X connect 4 0 2 1;
#X connect 5 0 7 0;
#X connect 6 0 5 1;
#X connect 7 0 1 0;
#X connect 8 0 9 0;
#X connect 9 0 7 1;
#X connect 10 0 24 0;
#X connect 11 0 8 0;
#X connect 12 0 65 0;
#X connect 13 0 12 1;
#X connect 14 0 13 0;
#X connect 15 0 21 0;
#X connect 16 0 22 0;
#X connect 17 0 13 0;
#X connect 18 0 1 0;
#X connect 19 0 20 0;
#X connect 19 0 39 0;
#X connect 20 0 18 1;
#X connect 21 0 13 0;
#X connect 21 1 13 1;
#X connect 22 0 13 0;
#X connect 22 1 13 2;
#X connect 24 0 6 0;
#X connect 25 0 24 1;
#X connect 26 0 31 0;
#X connect 27 0 28 0;
#X connect 28 0 26 1;
#X connect 29 0 30 0;
#X connect 30 0 26 2;
#X connect 31 0 34 0;
#X connect 32 0 33 0;
#X connect 33 0 31 1;
#X connect 34 0 1 0;
#X connect 35 0 36 0;
#X connect 36 0 34 1;
#X connect 37 0 70 0;
#X connect 38 0 37 1;
#X connect 39 0 38 0;
#X connect 39 1 38 1;
#X connect 40 0 41 0;
#X connect 40 1 72 0;
#X connect 41 0 73 0;
#X connect 42 0 41 0;
#X connect 43 0 41 0;
#X connect 44 0 41 0;
#X connect 45 0 40 0;
#X connect 45 1 46 0;
#X connect 46 0 40 0;
#X connect 47 0 46 1;
#X connect 48 0 41 0;
#X connect 49 0 48 1;
#X connect 50 0 48 2;
#X connect 51 0 52 1;
#X connect 52 0 41 0;
#X connect 53 0 52 2;
#X connect 56 0 52 3;
#X connect 56 0 63 0;
#X connect 57 0 52 4;
#X connect 58 0 52 5;
#X connect 59 0 52 6;
#X connect 64 0 1 0;
#X connect 65 0 71 0;
#X connect 66 0 67 0;
#X connect 67 0 65 1;
#X connect 68 0 69 0;
#X connect 69 0 66 0;
#X connect 71 0 26 0;
#X connect 71 1 2 0;
#X connect 71 2 5 0;
#X connect 71 3 45 0;
#X connect 71 3 76 0;
#X connect 72 0 48 0;
#X connect 72 1 52 0;
#X connect 73 0 64 0;
#X connect 73 1 1 0;
#X connect 74 0 71 1;
#X connect 74 0 75 0;
#X connect 76 0 47 0;
#X restore -321 247 pd effex layer 4;
#X obj -321 222 r effex_global_in;
#X obj -321 273 s effex_global_out;
#X connect 0 0 5 0;
#X connect 1 0 0 0;
#X connect 3 0 4 0;
#X connect 4 0 2 0;
#X connect 6 0 7 0;
#X connect 7 0 8 0;
#X connect 9 0 10 0;
#X connect 10 0 11 0;
#X connect 12 0 13 0;
#X connect 13 0 14 0;
#X connect 15 0 16 0;
#X connect 16 0 17 0;
#X connect 18 0 20 0;
#X connect 19 0 18 0;
#X restore -814 318 pd effects_mix;
#X obj -894 127 s effex_layer_3_in;
#X obj -894 -147 s effex_layer_1_in;
#X obj -894 -9 s effex_layer_2_in;
#X obj -576 39 r effex_global_out;
#X obj -576 61 vjmodules/pd_demux;
#X obj -895 -262 vjmodules/pd_video left-1;
#X obj -210 -143 s effex_layer_4_in;
#X obj -210 -7 s effex_layer_5_in;
#X obj -211 131 s effex_layer_6_in;
#X obj -581 -141 vjmodules/pd_instant_preset;
#X obj -581 -208 vjmodules/pd_preset_load_save;
#N canvas 0 116 882 766 blending 0;
#X obj 303 -23 r effex_layer_1_out;
#X obj 304 -1 r effex_layer_2_out;
#X obj 305 20 r effex_layer_3_out;
#X obj 210 324 vjmodules/pd_mix;
#X obj 728 -17 r effex_layer_4_out;
#X obj 729 5 r effex_layer_5_out;
#X obj 732 159 r effex_layer_6_out;
#X obj 194 516 s effex_global_in;
#X obj 103 324 vjmodules/pd_blend left2;
#X obj 103 147 vjmodules/pd_blend left1;
#X obj 467 147 vjmodules/pd_blend right1;
#X obj 467 324 vjmodules/pd_blend right2;
#X connect 0 0 9 0;
#X connect 1 0 9 1;
#X connect 2 0 8 1;
#X connect 3 0 7 0;
#X connect 4 0 10 0;
#X connect 5 0 10 1;
#X connect 6 0 11 1;
#X connect 8 0 3 0;
#X connect 9 0 8 0;
#X connect 10 0 11 0;
#X connect 11 0 3 1;
#X coords 0 -1 1 1 470 400 2 100 100;
#X restore -687 -253 pd blending;
#X obj -469 155 vjmodules/pd_rect 3;
#X obj -684 -253 cnv 15 100 30 empty empty XC0REX-VJ_0.1 20 12 0 14
-262144 -66577 0;
#N canvas 0 22 450 300 text 1;
#X obj 160 83 gemhead;
#X obj 193 266 text3d;
#X obj 214 112 openpanel;
#X obj 223 84 bng 15 250 50 0 empty empty empty 17 7 0 10 -262144 -1
-1;
#X floatatom 244 224 5 0 0 0 - - -;
#X msg 241 203 11.98;
#X obj 238 181 loadbang;
#X msg 200 198 font \$1;
#X obj 133 169 spigot;
#X obj 164 140 tgl 15 0 empty empty empty 17 7 0 10 -262144 -1 -1 0
1;
#X obj 260 53 inlet;
#X obj 302 105 loadbang;
#X msg 184 148 text BREAKCORELABS 0.8;
#X obj 445 51;
#X connect 0 0 8 0;
#X connect 2 0 7 0;
#X connect 3 0 2 0;
#X connect 4 0 1 1;
#X connect 5 0 4 0;
#X connect 6 0 5 0;
#X connect 7 0 1 0;
#X connect 8 0 1 0;
#X connect 9 0 8 1;
#X connect 10 0 9 0;
#X connect 11 0 12 0;
#X connect 12 0 1 0;
#X restore -720 318 pd text;
#N canvas 104 102 450 300 image 0;
#X obj 212 88 gemhead;
#X obj 221 172 pix_image;
#X obj 208 208 pix_texture;
#X obj 220 268 rectangle 2 2;
#X obj 291 67 bng 15 250 50 0 empty empty empty 17 7 0 10 -262144 -1
-1;
#X obj 288 101 openpanel;
#X msg 286 124 open \$1;
#X obj 217 132 spigot;
#X obj 263 95 tgl 15 0 empty empty empty 17 7 0 10 -262144 -1 -1 1
1;
#X obj 253 53 inlet;
#X obj 226 237 scaleXYZ;
#X floatatom 325 182 5 0 0 0 - - -;
#X obj 373 41 metro;
#X obj 366 16 tgl 15 0 empty empty empty 17 7 0 10 -262144 -1 -1 0
1;
#X floatatom 400 17 5 0 0 0 - - -;
#X msg 370 150 3.71;
#X connect 0 0 7 0;
#X connect 1 0 2 0;
#X connect 2 0 10 0;
#X connect 4 0 5 0;
#X connect 5 0 6 0;
#X connect 6 0 1 0;
#X connect 7 0 1 0;
#X connect 8 0 7 1;
#X connect 9 0 8 0;
#X connect 10 0 3 0;
#X connect 11 0 10 1;
#X connect 11 0 10 2;
#X connect 12 0 8 0;
#X connect 13 0 12 0;
#X connect 14 0 12 1;
#X connect 15 0 11 0;
#X restore -666 318 pd image;
#X obj -895 -149 tgl 15 0 empty empty empty 17 7 0 10 -262144 -1 -1
0 1;
#X obj -666 297 tgl 15 0 empty empty empty 17 7 0 10 -262144 -1 -1
1 1;
#X obj -720 298 tgl 15 0 empty empty empty 17 7 0 10 -262144 -1 -1
0 1;
#X obj -2 -258 vjmodules/pd_3band;
#X floatatom 7 -53 5 0 0 0 - - -;
#X floatatom 58 -54 5 0 0 0 - - -;
#X floatatom 105 -55 5 0 0 0 - - -;
#N canvas 753 133 594 606 osc 1;
#X obj -326 18 dumpOSC 9000;
#X obj -381 107 OSCroute /preset1;
#X obj -391 142 OSCroute /Button;
#X obj -716 297 route 1;
#X obj -651 298 route 1;
#X obj -592 299 route 1;
#X obj -536 297 route 1;
#X obj -480 296 route 1;
#X obj -413 410 outlet;
#X msg -656 345 0;
#X msg -608 344 1;
#X msg -558 345 2;
#X msg -501 344 3;
#X msg -444 345 4;
#X obj -423 293 route 1;
#X obj -367 291 route 1;
#X obj -636 236 OSCroute /0 /1 /2 /3 /4 /5 /6;
#X msg -404 340 5;
#X msg -359 343 6;
#X obj -392 246 print;
#X obj -329 424 OSCroute /18 /19;
#X obj -329 449 route 1;
#X obj -264 450 route 1;
#X obj -364 475 s osc-text;
#X obj -283 484 s osc-img;
#X obj -303 294 route 1;
#X obj -238 295 route 1;
#X obj -179 296 route 1;
#X obj -123 294 route 1;
#X msg -243 342 0;
#X msg -195 341 1;
#X msg -145 342 2;
#X msg -88 341 3;
#X obj -249 236 OSCroute /8 /9 /10 /11;
#X obj -134 389 outlet;
#X obj -475 152 print;
#X obj -212 139 OSCroute /Vslider;
#X obj -147 169 OSCroute /0 /1 /2 /3;
#X obj -104 201 s slider-osc-1;
#X obj -92 222 s slider-osc-2;
#X obj -67 245 s slider-osc-3;
#X obj -53 266 s slider-osc-4;
#X obj -27 444 route 1;
#X obj 38 445 route 1;
#X obj 97 446 route 1;
#X obj 150 444 route 1;
#X msg 33 492 0;
#X msg 81 491 1;
#X msg 131 492 2;
#X obj 142 539 outlet;
#X obj 27 386 OSCroute /12 /13 /14 /15;
#X msg 168 485 3;
#X obj -149 511 route 1;
#X obj -149 486 OSCroute /16 /17;
#X obj -150 568 s all-video;
#X msg -155 541 1;
#X obj -59 524 route 1;
#X obj -60 581 s all-video;
#X msg -65 554 0;
#X connect 0 0 1 0;
#X connect 1 0 2 0;
#X connect 1 0 35 0;
#X connect 1 0 36 0;
#X connect 2 0 16 0;
#X connect 2 0 19 0;
#X connect 2 0 20 0;
#X connect 2 0 33 0;
#X connect 2 0 50 0;
#X connect 2 0 53 0;
#X connect 3 0 9 0;
#X connect 4 0 10 0;
#X connect 5 0 11 0;
#X connect 6 0 12 0;
#X connect 7 0 13 0;
#X connect 9 0 8 0;
#X connect 10 0 8 0;
#X connect 11 0 8 0;
#X connect 12 0 8 0;
#X connect 13 0 8 0;
#X connect 14 0 17 0;
#X connect 15 0 18 0;
#X connect 16 0 3 0;
#X connect 16 1 4 0;
#X connect 16 2 5 0;
#X connect 16 3 6 0;
#X connect 16 4 7 0;
#X connect 16 5 14 0;
#X connect 16 6 15 0;
#X connect 17 0 8 0;
#X connect 18 0 8 0;
#X connect 20 0 21 0;
#X connect 20 1 22 0;
#X connect 21 0 23 0;
#X connect 22 0 24 0;
#X connect 25 0 29 0;
#X connect 26 0 30 0;
#X connect 27 0 31 0;
#X connect 28 0 32 0;
#X connect 29 0 34 0;
#X connect 30 0 34 0;
#X connect 31 0 34 0;
#X connect 32 0 34 0;
#X connect 33 0 25 0;
#X connect 33 1 26 0;
#X connect 33 2 27 0;
#X connect 33 3 28 0;
#X connect 36 0 37 0;
#X connect 37 0 38 0;
#X connect 37 1 39 0;
#X connect 37 2 40 0;
#X connect 37 3 41 0;
#X connect 42 0 46 0;
#X connect 43 0 47 0;
#X connect 44 0 48 0;
#X connect 45 0 51 0;
#X connect 46 0 49 0;
#X connect 47 0 49 0;
#X connect 48 0 49 0;
#X connect 50 0 42 0;
#X connect 50 1 43 0;
#X connect 50 2 44 0;
#X connect 50 3 45 0;
#X connect 51 0 49 0;
#X connect 52 0 55 0;
#X connect 53 0 52 0;
#X connect 53 1 56 0;
#X connect 55 0 54 0;
#X connect 56 0 58 0;
#X connect 58 0 57 0;
#X restore -445 -210 pd osc;
#X obj -712 268 r osc-text;
#X obj -640 266 r osc-img;
#X msg -608 296 0;
#X msg -561 295 0;
#X obj -894 155 vjmodules/pd_rect 1;
#X obj -685 155 vjmodules/pd_rect 2;
#X obj -262 156 vjmodules/pd_rect 4;
#X obj -770 -288 r slider-osc-1;
#X obj -781 -148 r slider-osc-2;
#X obj -794 -14 r slider-osc-3;
#X obj -894 -124 vjmodules/pd_video left-2;
#X obj -894 14 vjmodules/pd_video left-3;
#X obj -210 -259 vjmodules/pd_video right-1;
#X obj -210 -122 vjmodules/pd_video right-2;
#X obj -211 16 vjmodules/pd_video right-3;
#X obj -420 -168 s osc-eff-rack;
#X connect 1 0 2 0;
#X connect 2 0 1 0;
#X connect 3 0 1 1;
#X connect 4 0 18 0;
#X connect 9 0 10 0;
#X connect 10 0 34 0;
#X connect 10 1 35 0;
#X connect 10 2 4 0;
#X connect 10 3 36 0;
#X connect 11 0 7 0;
#X connect 23 0 21 0;
#X connect 24 0 20 0;
#X connect 25 0 26 0;
#X connect 25 1 27 0;
#X connect 25 2 28 0;
#X connect 29 0 15 0;
#X connect 29 1 10 1;
#X connect 29 2 45 0;
#X connect 30 0 24 0;
#X connect 30 0 33 0;
#X connect 31 0 23 0;
#X connect 31 0 32 0;
#X connect 32 0 24 0;
#X connect 33 0 23 0;
#X connect 37 0 11 1;
#X connect 38 0 40 1;
#X connect 39 0 41 1;
#X connect 40 0 8 0;
#X connect 41 0 6 0;
#X connect 42 0 12 0;
#X connect 43 0 13 0;
#X connect 44 0 14 0;
