#N canvas 33 201 809 381 10;
#X obj 108 127 +;
#X obj 108 104 t b f;
#X obj 160 129 +;
#X obj 160 106 t b f;
#X obj 254 129 +;
#X obj 254 106 t b f;
#X obj 201 231 outlet;
#X obj 201 155 inlet;
#X obj 1 1 cnv 15 358 31 empty empty empty 20 12 0 14 -260818 -66577
0;
#X obj 4 4 s-togs;
#X obj 265 157 outlet;
#X obj 201 201 s-mseq 2 16 0 \$1;
#X obj 271 4 s-togs 3;
#X obj 182 4 s-togs 2;
#X obj 93 4 s-togs 1;
#X obj 337 -75 inlet;
#N canvas 353 22 847 800 binary------------------------- 0;
#X obj 22 50 / 2;
#X obj 53 50 % 2;
#X floatatom 106 71 5 0 0 0 - - -;
#X floatatom 22 90 5 0 0 0 - - -;
#X obj 22 70 i;
#X obj 22 112 / 2;
#X obj 22 133 i;
#X obj 55 110 % 2;
#X floatatom 141 137 5 0 0 0 - - -;
#X floatatom 22 152 5 0 0 0 - - -;
#X obj 23 177 / 2;
#X obj 50 177 % 2;
#X floatatom 176 211 5 0 0 0 - - -;
#X obj 23 198 i;
#X floatatom 22 218 5 0 0 0 - - -;
#X obj 22 242 / 2;
#X obj 49 242 % 2;
#X floatatom 216 280 5 0 0 0 - - -;
#X obj 22 264 i;
#X floatatom 21 286 5 0 0 0 - - -;
#X obj 21 311 / 2;
#X obj 48 311 % 2;
#X floatatom 254 357 5 0 0 0 - - -;
#X obj 21 334 i;
#X floatatom 21 354 5 0 0 0 - - -;
#X obj 21 380 / 2;
#X obj 48 380 % 2;
#X floatatom 292 434 5 0 0 0 - - -;
#X obj 21 405 i;
#X floatatom 20 425 5 0 0 0 - - -;
#X obj 20 452 / 2;
#X obj 47 452 % 2;
#X floatatom 334 513 5 0 0 0 - - -;
#X obj 20 475 i;
#X floatatom 21 497 5 0 0 0 - - -;
#X obj 44 517 % 2;
#X floatatom 382 569 5 0 0 0 - - -;
#X obj 22 17 inlet;
#X obj 106 97 outlet;
#X obj 141 158 outlet;
#X obj 176 230 outlet;
#X obj 216 301 outlet;
#X obj 254 378 outlet;
#X obj 293 453 outlet;
#X obj 334 540 outlet;
#X obj 20 521 / 2;
#X obj 20 544 i;
#X obj 338 622 / 2;
#X obj 369 622 % 2;
#X floatatom 422 643 5 0 0 0 - - -;
#X floatatom 338 662 5 0 0 0 - - -;
#X obj 338 642 i;
#X obj 338 684 / 2;
#X obj 338 705 i;
#X obj 371 682 % 2;
#X floatatom 457 709 5 0 0 0 - - -;
#X floatatom 338 724 5 0 0 0 - - -;
#X obj 339 749 / 2;
#X obj 366 749 % 2;
#X floatatom 492 783 5 0 0 0 - - -;
#X obj 339 770 i;
#X floatatom 338 790 5 0 0 0 - - -;
#X obj 338 814 / 2;
#X obj 365 814 % 2;
#X floatatom 532 852 5 0 0 0 - - -;
#X obj 338 836 i;
#X floatatom 337 858 5 0 0 0 - - -;
#X obj 337 883 / 2;
#X obj 364 883 % 2;
#X floatatom 570 929 5 0 0 0 - - -;
#X obj 337 906 i;
#X floatatom 337 926 5 0 0 0 - - -;
#X obj 337 952 / 2;
#X obj 364 952 % 2;
#X floatatom 608 1006 5 0 0 0 - - -;
#X obj 337 977 i;
#X floatatom 336 997 5 0 0 0 - - -;
#X obj 336 1024 / 2;
#X obj 363 1024 % 2;
#X floatatom 650 1085 5 0 0 0 - - -;
#X obj 336 1047 i;
#X floatatom 337 1069 5 0 0 0 - - -;
#X obj 360 1089 % 2;
#X floatatom 689 1162 5 0 0 0 - - -;
#X obj 422 669 outlet;
#X obj 457 730 outlet;
#X obj 492 802 outlet;
#X obj 532 873 outlet;
#X obj 570 950 outlet;
#X obj 609 1025 outlet;
#X obj 650 1112 outlet;
#X floatatom 338 597 5 0 0 0 - - -;
#X obj 382 593 outlet;
#X obj 689 1183 outlet;
#X connect 0 0 4 0;
#X connect 1 0 2 0;
#X connect 2 0 38 0;
#X connect 3 0 7 0;
#X connect 3 0 5 0;
#X connect 4 0 3 0;
#X connect 5 0 6 0;
#X connect 6 0 9 0;
#X connect 7 0 8 0;
#X connect 8 0 39 0;
#X connect 9 0 11 0;
#X connect 9 0 10 0;
#X connect 10 0 13 0;
#X connect 11 0 12 0;
#X connect 12 0 40 0;
#X connect 13 0 14 0;
#X connect 14 0 16 0;
#X connect 14 0 15 0;
#X connect 15 0 18 0;
#X connect 16 0 17 0;
#X connect 17 0 41 0;
#X connect 18 0 19 0;
#X connect 19 0 21 0;
#X connect 19 0 20 0;
#X connect 20 0 23 0;
#X connect 21 0 22 0;
#X connect 22 0 42 0;
#X connect 23 0 24 0;
#X connect 24 0 26 0;
#X connect 24 0 25 0;
#X connect 25 0 28 0;
#X connect 26 0 27 0;
#X connect 27 0 43 0;
#X connect 28 0 29 0;
#X connect 29 0 31 0;
#X connect 29 0 30 0;
#X connect 30 0 33 0;
#X connect 31 0 32 0;
#X connect 32 0 44 0;
#X connect 33 0 34 0;
#X connect 34 0 35 0;
#X connect 34 0 45 0;
#X connect 35 0 36 0;
#X connect 36 0 92 0;
#X connect 37 0 1 0;
#X connect 37 0 0 0;
#X connect 45 0 46 0;
#X connect 46 0 91 0;
#X connect 47 0 51 0;
#X connect 48 0 49 0;
#X connect 49 0 84 0;
#X connect 50 0 54 0;
#X connect 50 0 52 0;
#X connect 51 0 50 0;
#X connect 52 0 53 0;
#X connect 53 0 56 0;
#X connect 54 0 55 0;
#X connect 55 0 85 0;
#X connect 56 0 58 0;
#X connect 56 0 57 0;
#X connect 57 0 60 0;
#X connect 58 0 59 0;
#X connect 59 0 86 0;
#X connect 60 0 61 0;
#X connect 61 0 63 0;
#X connect 61 0 62 0;
#X connect 62 0 65 0;
#X connect 63 0 64 0;
#X connect 64 0 87 0;
#X connect 65 0 66 0;
#X connect 66 0 68 0;
#X connect 66 0 67 0;
#X connect 67 0 70 0;
#X connect 68 0 69 0;
#X connect 69 0 88 0;
#X connect 70 0 71 0;
#X connect 71 0 73 0;
#X connect 71 0 72 0;
#X connect 72 0 75 0;
#X connect 73 0 74 0;
#X connect 74 0 89 0;
#X connect 75 0 76 0;
#X connect 76 0 78 0;
#X connect 76 0 77 0;
#X connect 77 0 80 0;
#X connect 78 0 79 0;
#X connect 79 0 90 0;
#X connect 80 0 81 0;
#X connect 81 0 82 0;
#X connect 82 0 83 0;
#X connect 83 0 93 0;
#X connect 91 0 48 0;
#X connect 91 0 47 0;
#X restore 75 -40 pd binary-------------------------;
#X connect 0 0 2 0;
#X connect 1 0 0 0;
#X connect 1 1 0 1;
#X connect 2 0 4 0;
#X connect 3 0 2 0;
#X connect 3 1 2 1;
#X connect 4 0 10 0;
#X connect 4 0 11 1;
#X connect 5 0 4 0;
#X connect 5 1 4 1;
#X connect 7 0 11 0;
#X connect 9 0 0 0;
#X connect 11 0 6 0;
#X connect 12 0 5 0;
#X connect 13 0 3 0;
#X connect 14 0 1 0;
#X connect 15 0 16 0;
#X connect 16 0 9 0;
#X connect 16 1 9 1;
#X connect 16 2 9 2;
#X connect 16 3 9 3;
#X connect 16 4 14 0;
#X connect 16 5 14 1;
#X connect 16 6 14 2;
#X connect 16 7 14 3;
#X connect 16 8 13 0;
#X connect 16 9 13 1;
#X connect 16 10 13 2;
#X connect 16 11 13 3;
#X connect 16 12 12 0;
#X connect 16 13 12 1;
#X connect 16 14 12 2;
#X connect 16 15 12 3;
#X coords 0 0 1 1 360 33 1 0 0;
