#N canvas 0 22 450 300 10;
#X obj 341 406 textfile;
#X msg 415 389 print;
#X obj 341 330 list prepend add;
#X obj 341 356 list trim;
#X obj 341 262 r SSSAD_ADMIN;
#X obj 341 306 route persist;
#X obj 341 284 list trim;
#X obj 105 118 hradio 15 1 0 8 empty empty instant-preset 0 -6 0 8
-262144 -1 -1 5;
#X obj 127 563 until;
#X msg 127 542 100;
#X obj 127 519 t b a;
#X msg 175 563 read \$1 \, rewind;
#X text 159 542 Avoid loops. A bang normally also works.;
#X obj 127 477 makefilename state-%d.sssad;
#X obj 339 453 s SSSAD;
#X obj 406 450 s SSSAD_ADMIN;
#X msg 406 425 set;
#X obj 35 255 print saveindex;
#X msg 230 307 clear;
#X obj 208 407 s SSSAD_ADMIN;
#X msg 208 341 save;
#X msg 222 380 set;
#X obj 186 271 t a b b;
#X msg 186 454 write \$1;
#X obj 186 240 makefilename state-%d.sssad;
#X obj 186 211 float 0;
#X obj 105 138 bng 15 250 50 0 empty empty save 17 7 0 10 -262144 -1
-1;
#X obj 133 184 t b b;
#X obj 113 60 inlet;
#X connect 0 0 14 0;
#X connect 0 1 16 0;
#X connect 1 0 0 0;
#X connect 2 0 3 0;
#X connect 3 0 0 0;
#X connect 4 0 6 0;
#X connect 5 0 2 0;
#X connect 6 0 5 0;
#X connect 7 0 17 0;
#X connect 7 0 13 0;
#X connect 7 0 25 1;
#X connect 8 0 0 0;
#X connect 9 0 8 0;
#X connect 10 0 9 0;
#X connect 10 1 11 0;
#X connect 11 0 0 0;
#X connect 13 0 10 0;
#X connect 16 0 15 0;
#X connect 18 0 0 0;
#X connect 20 0 19 0;
#X connect 21 0 19 0;
#X connect 22 0 23 0;
#X connect 22 1 20 0;
#X connect 22 2 18 0;
#X connect 23 0 0 0;
#X connect 24 0 22 0;
#X connect 25 0 24 0;
#X connect 26 0 27 0;
#X connect 27 0 25 0;
#X connect 27 1 25 0;
#X connect 28 0 7 0;
#X coords 0 -1 1 1 130 60 2 100 100;
