#N canvas 0 22 450 300 10;
#X obj 331 396 textfile;
#X msg 220 297 clear;
#X msg 405 379 print;
#X obj 331 320 list prepend add;
#X obj 331 346 list trim;
#X obj 198 397 s SSSAD_ADMIN;
#X obj 331 252 r SSSAD_ADMIN;
#X obj 331 296 route persist;
#X obj 331 274 list trim;
#X msg 198 331 save;
#X msg 212 370 set;
#X obj 176 261 t a b b;
#X msg 176 444 write \$1;
#X obj 105 116 hradio 15 1 0 8 empty empty preset 0 -6 0 8 -262144
-1 -1 0;
#X obj 117 553 until;
#X msg 117 532 100;
#X obj 117 509 t b a;
#X msg 165 553 read \$1 \, rewind;
#X text 149 532 Avoid loops. A bang normally also works.;
#X obj 176 230 makefilename state-%d.sssad;
#X obj 117 467 makefilename state-%d.sssad;
#X obj 329 443 s SSSAD;
#X obj 396 440 s SSSAD_ADMIN;
#X msg 396 415 set;
#X obj 105 141 bng 15 250 50 0 empty empty save 17 7 0 10 -262144 -1
-1;
#X obj 176 201 float 0;
#X obj 25 245 print saveindex;
#X obj 155 141 bng 15 250 50 0 empty empty load 17 7 0 10 -262144 -1
-1;
#X obj 108 219 float 0;
#X obj 60 170 t b b;
#X connect 0 0 21 0;
#X connect 0 1 23 0;
#X connect 1 0 0 0;
#X connect 2 0 0 0;
#X connect 3 0 4 0;
#X connect 4 0 0 0;
#X connect 6 0 8 0;
#X connect 7 0 3 0;
#X connect 8 0 7 0;
#X connect 9 0 5 0;
#X connect 10 0 5 0;
#X connect 11 0 12 0;
#X connect 11 1 9 0;
#X connect 11 2 1 0;
#X connect 12 0 0 0;
#X connect 13 0 25 1;
#X connect 13 0 26 0;
#X connect 13 0 28 1;
#X connect 14 0 0 0;
#X connect 15 0 14 0;
#X connect 16 0 15 0;
#X connect 16 1 17 0;
#X connect 17 0 0 0;
#X connect 19 0 11 0;
#X connect 20 0 16 0;
#X connect 23 0 22 0;
#X connect 24 0 29 0;
#X connect 25 0 19 0;
#X connect 27 0 28 0;
#X connect 28 0 20 0;
#X connect 29 0 25 0;
#X connect 29 1 25 0;
#X coords 0 -1 1 1 130 60 2 100 100;
