#N canvas 127 45 694 748 10;
#X obj 113 317 pix_texture;
#X obj 42 426 rectangle 4 3;
#X obj 112 288 inlet;
#X obj 116 146 bng 15 250 50 0 empty empty Sphere 17 7 0 10 -262144
-1 -1;
#X obj 116 166 bng 15 250 50 0 empty empty Square 17 7 0 10 -262144
-1 -1;
#X obj 116 186 bng 15 250 50 0 empty empty Cube 17 7 0 10 -262144 -1
-1;
#X obj 116 126 bng 15 250 50 0 empty empty Rectangle 17 7 0 10 -262144
-1 -1;
#X obj 123 361 demultiplex 1 2 3 4;
#X obj 114 -28 loadbang;
#X obj 136 431 sphere;
#X floatatom 212 123 5 0 0 0 W - -;
#X floatatom 260 123 5 0 0 0 H - -;
#X floatatom 212 143 5 0 0 0 S - -;
#X floatatom 261 143 5 0 0 0 SG - -;
#X msg 138 63 4;
#X msg 180 63 3;
#X msg 225 63 2;
#X msg 267 63 20;
#X obj 223 429 square;
#X floatatom 212 163 5 0 0 0 S - -;
#X msg 303 63 3;
#X obj 289 423 cube;
#X floatatom 212 183 5 0 0 0 S - -;
#X msg 336 63 3;
#X obj 114 1 t b b;
#X msg -130 151 0;
#X msg -143 193 1;
#X msg -110 228 2;
#X msg -84 260 3;
#X obj -171 482 ../sssad/sssad rect-\$1;
#X obj -79 430 pack f f f f f f;
#X obj -46 358 bondo 7;
#X obj -59 539 unpack f f f f f f f;
#X obj -159 549 route 0 1 2 3;
#X obj 345 195 loadbang;
#X msg 341 277;
#X obj 268 180 tgl 15 0 empty empty empty 17 7 0 10 -262144 -1 -1 0
1;
#X obj -73 513 spigot;
#X connect 0 0 7 0;
#X connect 2 0 0 0;
#X connect 3 0 26 0;
#X connect 4 0 27 0;
#X connect 5 0 28 0;
#X connect 6 0 25 0;
#X connect 7 0 1 0;
#X connect 7 1 9 0;
#X connect 7 2 18 0;
#X connect 7 3 21 0;
#X connect 8 0 24 0;
#X connect 10 0 1 1;
#X connect 10 0 31 1;
#X connect 11 0 1 2;
#X connect 11 0 31 2;
#X connect 12 0 9 1;
#X connect 12 0 31 3;
#X connect 13 0 9 2;
#X connect 13 0 31 4;
#X connect 14 0 10 0;
#X connect 15 0 11 0;
#X connect 16 0 12 0;
#X connect 17 0 13 0;
#X connect 19 0 18 1;
#X connect 19 0 31 5;
#X connect 20 0 19 0;
#X connect 22 0 21 1;
#X connect 22 0 31 6;
#X connect 23 0 22 0;
#X connect 24 0 6 0;
#X connect 24 1 14 0;
#X connect 24 1 15 0;
#X connect 24 1 16 0;
#X connect 24 1 17 0;
#X connect 24 1 20 0;
#X connect 24 1 23 0;
#X connect 25 0 7 1;
#X connect 25 0 31 0;
#X connect 26 0 7 1;
#X connect 26 0 31 0;
#X connect 27 0 7 1;
#X connect 27 0 31 0;
#X connect 28 0 7 1;
#X connect 28 0 31 0;
#X connect 29 0 37 0;
#X connect 30 0 29 1;
#X connect 31 0 30 0;
#X connect 31 1 30 1;
#X connect 31 2 30 2;
#X connect 31 3 30 3;
#X connect 31 4 30 4;
#X connect 31 5 30 5;
#X connect 32 0 33 0;
#X connect 32 1 10 0;
#X connect 32 2 11 0;
#X connect 32 3 12 0;
#X connect 32 4 13 0;
#X connect 32 5 19 0;
#X connect 32 6 22 0;
#X connect 33 0 25 0;
#X connect 33 1 26 0;
#X connect 33 2 27 0;
#X connect 33 3 28 0;
#X connect 34 0 36 0;
#X connect 36 0 37 1;
#X connect 37 0 32 0;
#X coords 0 -1 1 1 200 120 1 100 100;
