#N canvas 507 22 870 846 10;
#X obj -118 56 gemhead;
#X obj -118 90 spigot;
#X obj 113 134 tgl 15 0 empty global_off ON/OFF 17 7 0 10 -262144 -1
-1 0 1;
#X obj -116 225 pix_film;
#X obj 175 134 bng 15 250 50 0 empty empty OPEN 17 7 0 10 -262144 -1
-1;
#X msg -24 174 auto \$1;
#X obj -116 307 outlet;
#X obj 101 101 cnv 15 199 20 empty empty >>VIDEO_INPUT 5 12 0 12 -1
-4034 0;
#X obj 73 -118 random;
#X obj 85 -192 unpack 0 0 0;
#X obj 340 280 tgl 15 0 empty empty RND 17 7 0 10 -262144 -1 -1 1 1
;
#X obj 153 -60 metro 30;
#X obj 254 -185 i;
#X obj 285 -185 + 1;
#X obj 340 304 tgl 15 0 empty empty FRM 17 7 0 10 -262144 -1 -1 0 1
;
#X obj 254 -158 mod;
#X floatatom 189 160 5 0 0 0 FR - -;
#X obj 254 -209 metro 20;
#X floatatom 135 160 5 0 0 0 RATE - -;
#X obj 72 -32 loadbang;
#X msg 72 -9 33;
#X obj 109 285 t f;
#X obj 92 253 spigot;
#X obj -10 340 t b;
#X msg 40 38 1;
#X msg -48 56 0;
#X obj -93 -16 symbol;
#X obj -67 -157 openpanel;
#X obj -66 -56 bng 15 250 50 0 empty empty empty 17 7 0 10 -262144
-1 -1;
#X msg -18 -54 symbol \$1;
#X msg -211 61 open \$1;
#X obj -40 -126 t b b a;
#X obj -66 -89 delay 100;
#X obj -126 -112 *;
#X obj -126 -158 inlet;
#X floatatom -128 -88 5 0 0 0 - - -;
#X floatatom -126 -134 5 0 0 0 - - -;
#X obj 418 -104 loadbang;
#X obj 419 -64 print \$1;
#X obj 154 481 ../sssad/sssad video-\$1;
#X obj 72 481 list split 2;
#X obj 152 592 unpack f f;
#X obj 340 260 tgl 15 0 empty empty AUTO 17 7 0 10 -262144 -1 -1 0
1;
#X obj 493 181 route 0 1 2 3;
#X msg 388 179 0;
#X obj 388 151 r \$0-off;
#X obj 493 210 s \$0-off;
#X obj 512 237 t b b;
#X obj 525 258 s \$0-off;
#X obj 533 296 t b b;
#X obj 544 318 s \$0-off;
#X obj 557 355 t b b;
#X obj 568 377 s \$0-off;
#X obj 232 136 vradio 15 1 0 4 empty empty empty 0 -8 0 10 -262144
-1 -1 2;
#X obj 250 141 cnv 15 40 10 empty empty OFF 0 0 0 10 -262144 -66577
0;
#X obj 250 157 cnv 15 40 10 empty empty AUTO 0 0 0 10 -262144 -66577
0;
#X obj 250 173 cnv 15 40 10 empty empty RAND 0 0 0 10 -262144 -66577
0;
#X obj 250 189 cnv 15 40 10 empty empty FRM 0 0 0 10 -262144 -66577
0;
#X obj -179 354 unpack f f f;
#X floatatom 136 186 5 0 0 0 w - -;
#X floatatom 188 186 5 0 0 0 h - -;
#X obj 315 437 pack f f s;
#X obj 109 593 l2s;
#X obj 63 592 t b a;
#X obj 250 54 loadbang;
#X obj 194 353 r SSSAD_ADMIN;
#X obj 214 382 route save;
#X obj 243 416 t b;
#X obj 256 545 print \$1 loaded;
#X obj 333 475 print saving;
#X obj 386 389 t b a;
#X obj 571 -178 inlet;
#X obj 542 -120 / 118;
#X obj 542 -88 * 500;
#X obj 137 45 r all-video;
#X connect 0 0 1 0;
#X connect 1 0 3 0;
#X connect 2 0 1 1;
#X connect 3 0 6 0;
#X connect 3 1 9 0;
#X connect 3 1 23 0;
#X connect 3 1 58 0;
#X connect 3 2 22 0;
#X connect 4 0 27 0;
#X connect 5 0 3 0;
#X connect 8 0 3 1;
#X connect 9 0 8 1;
#X connect 9 0 15 1;
#X connect 9 0 33 1;
#X connect 10 0 11 0;
#X connect 11 0 8 0;
#X connect 12 0 13 0;
#X connect 12 0 15 0;
#X connect 13 0 12 1;
#X connect 14 0 17 0;
#X connect 15 0 16 0;
#X connect 15 0 3 1;
#X connect 17 0 12 0;
#X connect 18 0 17 1;
#X connect 18 0 11 1;
#X connect 18 0 61 0;
#X connect 19 0 20 0;
#X connect 20 0 18 0;
#X connect 21 0 3 1;
#X connect 22 0 21 0;
#X connect 23 0 24 0;
#X connect 24 0 1 1;
#X connect 25 0 1 1;
#X connect 26 0 30 0;
#X connect 26 0 70 0;
#X connect 27 0 31 0;
#X connect 28 0 26 0;
#X connect 29 0 26 1;
#X connect 30 0 3 0;
#X connect 31 0 32 0;
#X connect 31 1 25 0;
#X connect 31 2 29 0;
#X connect 32 0 28 0;
#X connect 33 0 35 0;
#X connect 34 0 36 0;
#X connect 35 0 3 1;
#X connect 36 0 33 0;
#X connect 37 0 38 0;
#X connect 39 0 40 0;
#X connect 40 0 41 0;
#X connect 40 1 62 0;
#X connect 41 0 18 0;
#X connect 41 1 53 0;
#X connect 42 0 5 0;
#X connect 42 0 22 1;
#X connect 43 0 46 0;
#X connect 43 1 47 0;
#X connect 43 2 49 0;
#X connect 43 3 51 0;
#X connect 44 0 42 0;
#X connect 44 0 10 0;
#X connect 44 0 14 0;
#X connect 45 0 44 0;
#X connect 47 0 42 0;
#X connect 47 1 48 0;
#X connect 49 0 10 0;
#X connect 49 1 50 0;
#X connect 51 0 14 0;
#X connect 51 1 52 0;
#X connect 53 0 43 0;
#X connect 53 0 61 1;
#X connect 58 1 59 0;
#X connect 58 2 60 0;
#X connect 61 0 39 1;
#X connect 61 0 69 0;
#X connect 62 0 63 0;
#X connect 62 0 68 0;
#X connect 63 0 26 0;
#X connect 63 1 26 1;
#X connect 64 0 53 0;
#X connect 65 0 66 0;
#X connect 66 0 67 0;
#X connect 67 0 61 0;
#X connect 70 0 61 0;
#X connect 70 1 61 2;
#X connect 71 0 72 0;
#X connect 72 0 73 0;
#X connect 73 0 18 0;
#X connect 74 0 2 0;
#X coords 0 -1 1 1 200 110 1 100 100;
